<mxfile host="app.diagrams.net" modified="2023-04-06T07:59:09.847Z" agent="Mozilla/5.0 (Windows NT 10.0; Win64; x64) AppleWebKit/537.36 (KHTML, like Gecko) Chrome/111.0.0.0 Safari/537.36" version="21.1.4" etag="YeXNmX2G9PTRXf9BY20W" type="github">
  <diagram name="第 1 页" id="JtB2Q_H3nAouYNFGQ_17">
    <mxGraphModel>
      <root>
        <mxCell id="0" />
        <mxCell id="1" parent="0" />
      </root>
    </mxGraphModel>
  </diagram>
</mxfile>
